<?xml version="1.0" encoding="UTF-8"?>
<svg version="1.1" xmlns="http://www.w3.org/2000/svg" width="295" height="295">
<path d="M0 0 C97.35 0 194.7 0 295 0 C295 97.35 295 194.7 295 295 C197.65 295 100.3 295 0 295 C0 197.65 0 100.3 0 0 Z " fill="#FEFEFE" transform="translate(0,0)"/>
<path d="M0 0 C3.28980825 0.58912989 6.26840997 1.38176458 9.37084961 2.61962891 C10.2101149 2.95205093 11.04938019 3.28447296 11.91407776 3.62696838 C13.26951942 4.17126747 13.26951942 4.17126747 14.65234375 4.7265625 C15.60886337 5.10662949 16.565383 5.48669647 17.55088806 5.87828064 C20.68138182 7.12315378 23.80947475 8.37393856 26.9375 9.625 C30.18542743 10.91953872 33.43382687 12.21288801 36.68225098 13.50617981 C38.88322464 14.38259887 41.08398834 15.25954536 43.2845459 16.13700867 C50.36614519 18.95905288 57.45773349 21.75415019 64.55859375 24.52734375 C66.32497084 25.21853697 68.09132882 25.90977903 69.85766602 26.60107422 C72.35300963 27.57751433 74.84890749 28.55237147 77.34689331 29.52203369 C79.62633002 30.40720059 81.90323071 31.29860948 84.1796875 32.19140625 C84.8482225 32.44889145 85.51675751 32.70637665 86.20555115 32.97166443 C88.96645441 34.06029439 90.87663385 34.87663385 93 37 C92.72700073 37.69469894 92.45400146 38.38939789 92.17272949 39.10514832 C87.3269856 51.43660473 82.48212752 63.76840255 77.64453125 76.10305786 C75.74213991 80.95346356 73.83887869 85.80352773 71.93554688 90.65356445 C70.96382133 93.13030776 69.99239844 95.60716723 69.02148438 98.08422852 C67.58844358 101.74021891 66.15363887 105.39551577 64.71875 109.05078125 C64.28751831 110.15174637 63.85628662 111.25271149 63.4119873 112.38703918 C61.35298977 117.62836835 59.25806811 122.84111952 57 128 C49.81890978 126.63146877 43.41610842 124.35227087 36.671875 121.5625 C34.44619761 120.65697655 32.22027714 119.7520504 29.99414062 118.84765625 C28.27046265 118.14406982 28.27046265 118.14406982 26.51196289 117.42626953 C20.73613697 115.08060564 14.93815271 112.79137761 9.140625 110.5 C6.82939287 109.5847218 4.51819497 108.66935717 2.20703125 107.75390625 C-0.11197213 106.83591972 -2.43098261 105.91795113 -4.75 105 C-8.31109632 103.58994681 -11.87214477 102.17977279 -15.4331665 100.76953125 C-17.62008384 99.90351024 -19.80705208 99.03761775 -21.99407959 98.171875 C-22.9741095 97.78386719 -23.9541394 97.39585937 -24.96386719 96.99609375 C-25.81889832 96.65763428 -26.67392944 96.3191748 -27.55487061 95.97045898 C-30.03837943 94.9847674 -32.51959194 93.99346568 -35 93 C-34.50476506 86.22861461 -31.94356752 80.61480009 -29.25 74.4375 C-25.98211715 66.87929789 -22.98694806 59.2990552 -20.25927734 51.52856445 C-18.2002433 45.75903769 -15.94300436 40.06997725 -13.6875 34.375 C-12.97726685 32.57434082 -12.97726685 32.57434082 -12.25268555 30.73730469 C-8.20166336 20.47826687 -4.11468475 10.2336572 0 0 Z " fill="#FD0000" transform="translate(148,73)"/>
<path d="M0 0 C3.48060863 0.69612173 6.09361109 1.3120087 9.29150391 2.58789062 C10.11483215 2.9139328 10.9381604 3.23997498 11.78643799 3.57589722 C12.67417908 3.93241364 13.56192017 4.28893005 14.4765625 4.65625 C15.41941101 5.03089386 16.36225952 5.40553772 17.3336792 5.79153442 C20.4323594 7.02377825 23.52866326 8.2618808 26.625 9.5 C28.76886842 10.35379129 30.91291339 11.20713938 33.05712891 12.06005859 C37.48597269 13.82201314 41.91407303 15.58581913 46.34179688 17.35058594 C52.78046418 19.91491687 59.22503682 22.4641031 65.671875 25.0078125 C67.16604446 25.59746796 67.16604446 25.59746796 68.69039917 26.19903564 C72.52984203 27.71397611 76.36942939 29.22854918 80.20928955 30.74243164 C82.83516828 31.77797635 85.46060025 32.81464595 88.0859375 33.8515625 C88.86386658 34.15796661 89.64179565 34.46437073 90.44329834 34.78005981 C95.77239574 36.88619787 95.77239574 36.88619787 98 38 C97.36284411 43.40039694 95.59907178 48.02386504 93.59765625 53.03125 C93.07308586 54.36450821 93.07308586 54.36450821 92.53791809 55.72470093 C91.38483136 58.65195789 90.22364654 61.57593186 89.0625 64.5 C88.25931496 66.53507702 87.45675216 68.57039971 86.65478516 70.60595703 C84.97325093 74.872691 83.28898095 79.13833082 81.60302734 83.40332031 C77.73732356 93.19033082 73.90968324 102.9922379 70.07955933 112.79321289 C68.15608933 117.71428645 66.23032781 122.63446289 64.3046875 127.5546875 C63.65868011 129.20556199 63.01268276 130.8564404 62.36669922 132.50732422 C61.91568848 133.65990723 61.46467773 134.81249023 61 136 C57.0467066 135.38869049 53.75215064 134.64116166 50.125 132.9375 C49.34382813 132.57527344 48.56265625 132.21304688 47.7578125 131.83984375 C47.17773438 131.56269531 46.59765625 131.28554687 46 131 C45.67 132.65 45.34 134.3 45 136 C8.04 136 -28.92 136 -67 136 C-67 101.35 -67 66.7 -67 31 C-59.08 31 -51.16 31 -43 31 C-42.855625 29.1025 -42.71125 27.205 -42.5625 25.25 C-42.29411056 21.72259589 -41.98316039 18.40388303 -41 15 C-32.57527434 15.41200176 -24.61834011 16.54413574 -16.41015625 18.37890625 C-12.59389338 19.17918294 -12.59389338 19.17918294 -7 19 C-4.69 12.73 -2.38 6.46 0 0 Z M2 4 C-12.15539298 39.09298893 -12.15539298 39.09298893 -25.65234375 74.44140625 C-26.63275718 77.03026605 -27.63994878 79.59271122 -28.69140625 82.15234375 C-28.97266357 82.83901123 -29.2539209 83.52567871 -29.54370117 84.2331543 C-30.32210646 86.12167296 -31.10993273 88.00630078 -31.8984375 89.890625 C-33.22262322 93.07860827 -33.22262322 93.07860827 -33 97 C-20.66204249 101.8791587 -8.32365004 106.75721607 4.01513672 111.63427734 C7.88926335 113.16559199 11.76328739 114.6971657 15.63720703 116.22900391 C20.00176082 117.95481426 24.36659023 119.6799257 28.73162842 121.4045105 C30.35692883 122.04678227 31.98213376 122.68929574 33.60723877 123.33206177 C35.877224 124.22984172 38.14755515 125.12674152 40.41796875 126.0234375 C41.07144791 126.28212112 41.72492706 126.54080475 42.39820862 126.80732727 C44.2634407 127.54338765 46.13170741 128.27174291 48 129 C48.70726227 129.2809552 49.41452454 129.5619104 50.14321899 129.85137939 C53.22660998 131.05221018 55.66073264 132 59 132 C65.75991109 115.7107742 72.22545173 99.32592323 78.52667236 82.85467529 C83.88564861 68.84829881 89.3622589 54.8969812 95 41 C92.30293195 38.83698783 89.82908142 37.36903108 86.60327148 36.13745117 C85.73433762 35.80199783 84.86540375 35.46654449 83.97013855 35.1209259 C83.02995377 34.76520004 82.08976898 34.40947418 81.12109375 34.04296875 C80.1328511 33.66295212 79.14460846 33.28293549 78.12641907 32.8914032 C74.89887279 31.65123288 71.66819559 30.41944002 68.4375 29.1875 C63.98179574 27.4785761 59.5278697 25.7650482 55.07421875 24.05078125 C53.96301666 23.62361816 52.85181458 23.19645508 51.7069397 22.75634766 C40.22004363 18.33209331 28.79896348 13.74820817 17.40014648 9.10229492 C16.07406899 8.56556033 14.74797928 8.02885592 13.421875 7.4921875 C12.29362305 7.03183105 11.16537109 6.57147461 10.00292969 6.09716797 C7.3216758 5.11752935 4.81085338 4.46106367 2 4 Z " fill="#130E0E" transform="translate(146,69)"/>
<path d="M0 0 C6.58694802 -0.24856408 12.55597352 0.68452977 19 2 C19.96550781 2.19078125 20.93101562 2.3815625 21.92578125 2.578125 C24.28528478 3.04535342 26.64318339 3.51943436 29 4 C28.38094598 8.95532943 26.87012262 13.31471738 25.0078125 17.9140625 C24.55461891 19.05404442 24.55461891 19.05404442 24.0922699 20.21705627 C23.44420444 21.84508638 22.79342267 23.47203739 22.14016724 25.09799194 C21.11777358 27.64298838 20.10271263 30.19079815 19.08959961 32.73950195 C17.38790825 37.01791657 15.68069026 41.29409684 13.97149658 45.56951904 C11.97953983 50.55297759 9.98993533 55.53734355 8.01318359 60.52685547 C7.06388144 62.92231769 6.10995943 65.31595553 5.15087891 67.70751953 C4.52125244 69.29669189 4.52125244 69.29669189 3.87890625 70.91796875 C3.5135376 71.83344482 3.14816895 72.7489209 2.77172852 73.69213867 C1.84143472 76.06861218 1.84143472 76.06861218 2 79 C28.30355805 89.41008062 54.63930189 99.7354952 81 110 C81 111.32 81 112.64 81 114 C61.45059212 110.76057232 41.90774342 107.48745662 22.37963867 104.12182617 C12.59869664 102.43737649 2.81231987 100.78946015 -6.98535156 99.20458984 C-7.87706055 99.05844238 -8.76876953 98.91229492 -9.6875 98.76171875 C-10.45449219 98.63756592 -11.22148438 98.51341309 -12.01171875 98.38549805 C-14 98 -14 98 -17 97 C-14.79184938 78.60842968 -11.28257825 60.43130143 -7.86279297 42.234375 C-6.1865665 33.22546669 -4.7057607 24.19297508 -3.34375 15.13134766 C-2.54789735 9.94359948 -1.58688996 5.00534454 0 0 Z " fill="#FBFBFB" transform="translate(108,88)"/>
<path d="M0 0 C6.6 0 13.2 0 20 0 C18.89117762 9.37458923 17.37891221 18.59913461 15.625 27.875 C13.34706006 39.92885397 11.34922019 52.00980366 9.45410156 64.12890625 C8.74518514 68.61108747 8.00033009 73.08709178 7.25 77.5625 C7.05833252 78.70634155 7.05833252 78.70634155 6.86279297 79.87329102 C6.57590481 81.58231326 6.28807731 83.2911778 6 85 C6.59498291 85.05260986 7.18996582 85.10521973 7.80297852 85.15942383 C14.22868633 85.7604881 20.56964736 86.64580437 26.9375 87.6875 C27.98510498 87.85685059 29.03270996 88.02620117 30.11206055 88.20068359 C43.46180601 90.37557203 56.78866288 92.68788455 70.11698914 94.98963928 C76.07410986 96.01664504 82.03570605 97.01559503 88 98 C88 98.33 88 98.66 88 99 C58.96 99 29.92 99 0 99 C0 66.33 0 33.66 0 0 Z " fill="#F9F9F9" transform="translate(82,103)"/>
<path d="M0 0 C0.33153492 8.20651241 -0.63123838 15.71707842 -2.25 23.75 C-2.71075265 26.13129452 -3.17036793 28.51280935 -3.62890625 30.89453125 C-3.85980957 32.08127441 -4.09071289 33.26801758 -4.32861328 34.49072266 C-5.34355417 39.79572641 -6.27184539 45.11459468 -7.1875 50.4375 C-7.43209961 51.85349487 -7.43209961 51.85349487 -7.68164062 53.2980957 C-8.81196245 59.86134927 -9.92575405 66.42731096 -11 73 C-11.99 72.34 -12.98 71.68 -14 71 C-13.39477259 63.99830904 -12.43245842 57.12031817 -11.22265625 50.19921875 C-10.96554115 48.70186943 -10.96554115 48.70186943 -10.70323181 47.17427063 C-10.15958921 44.0114402 -9.61129835 40.84943952 -9.0625 37.6875 C-8.51923513 34.54275317 -7.97698409 31.39783585 -7.43588257 28.25271606 C-7.08867725 26.23609552 -6.74009144 24.21971211 -6.39004517 22.20358276 C-5.29347707 15.85269014 -4.3094232 9.50189949 -3.48999023 3.10864258 C-3.32829346 2.41279053 -3.16659668 1.71693848 -3 1 C-1 0 -1 0 0 0 Z " fill="#1A1A1A" transform="translate(103,109)"/>
<path d="M0 0 C0.33 0 0.66 0 1 0 C1.2423143 7.26185676 0.33148158 13.932776 -1 21.0625 C-1.19078125 22.11888672 -1.3815625 23.17527344 -1.578125 24.26367188 C-2.04511728 26.8438042 -2.51919968 29.42241158 -3 32 C-3.99 31.34 -4.98 30.68 -6 30 C-5.49412794 23.62601201 -4.63548019 17.36199676 -3.5625 11.0625 C-3.37917114 9.94403687 -3.37917114 9.94403687 -3.19213867 8.80297852 C-2.57410032 5.27827245 -2.01161793 3.01742689 0 0 Z " fill="#1A1A1A" transform="translate(95,150)"/>
<path d="M0 0 C0 3.63 0 7.26 0 11 C-3.16130459 6.78492722 -3.3367697 5.93928888 -3 1 C-1 0 -1 0 0 0 Z " fill="#2F2F2F" transform="translate(97,144)"/>
<path d="M0 0 C0 3.63 0 7.26 0 11 C-3.16130459 6.78492722 -3.3367697 5.93928888 -3 1 C-1 0 -1 0 0 0 Z " fill="#2F2F2F" transform="translate(103,109)"/>
<path d="M0 0 C0.33 0 0.66 0 1 0 C1 2.97 1 5.94 1 9 C0.01 8.34 -0.98 7.68 -2 7 C-1.125 1.125 -1.125 1.125 0 0 Z " fill="#131313" transform="translate(95,150)"/>
<path d="M0 0 C0.33 0 0.66 0 1 0 C1 2.97 1 5.94 1 9 C0.01 8.34 -0.98 7.68 -2 7 C-1.125 1.125 -1.125 1.125 0 0 Z " fill="#131313" transform="translate(101,115)"/>
</svg>
